<svg width="222" height="83" viewBox="0 0 222 83" fill="none" xmlns="http://www.w3.org/2000/svg">
<path fill-rule="evenodd" clip-rule="evenodd" d="M69.1471 17.5518H69.1472C71.1441 17.5518 72.7778 18.9096 72.7778 20.5694V30.2015C72.7778 31.8612 71.1441 33.2191 69.1472 33.2191H69.1471C67.1501 33.2191 65.5164 31.8612 65.5164 30.2015V20.5694C65.5164 18.9096 67.1501 17.5518 69.1471 17.5518Z" fill="#0E1B4F"/>
<path fill-rule="evenodd" clip-rule="evenodd" d="M85.8756 0C85.8788 0.0761582 85.8805 0.153498 85.8805 0.229788V8.74114C85.0598 9.5043 84.7271 10.4783 84.7271 11.5709C84.7271 12.6635 85.0598 13.6839 85.8805 14.3401V34.3827C85.8805 36.8267 84.2464 38.8274 82.2502 38.8274H82.2501C80.2542 38.8274 78.6198 36.8274 78.6198 34.3827V14.3654C79.4553 13.6444 79.8576 12.6177 79.8576 11.4979C79.8576 10.3781 79.4678 9.36669 78.6198 8.66092V0.229788C78.6198 0.15271 78.6215 0.0761582 78.6247 0H85.8756Z" fill="#0E1B4F"/>
<path fill-rule="evenodd" clip-rule="evenodd" d="M42.9405 28.2363H42.9406C44.9374 28.2363 46.5712 29.87 46.5712 31.867V34.5688C46.5712 36.5658 44.9374 38.1995 42.9406 38.1995H42.9405C40.9435 38.1995 39.3098 36.5658 39.3098 34.5688V31.867C39.3098 29.87 40.9435 28.2363 42.9405 28.2363Z" fill="#0E1B4F"/>
<path fill-rule="evenodd" clip-rule="evenodd" d="M56.0438 16.0889H56.0439C58.0408 16.0889 59.6745 17.5164 59.6745 19.2612V35.6546C59.6745 37.3995 58.0408 38.827 56.0439 38.827H56.0438C54.0468 38.827 52.4131 37.3995 52.4131 35.6546V19.2612C52.4131 17.5164 54.0468 16.0889 56.0438 16.0889Z" fill="#0E1B4F"/>
<path fill-rule="evenodd" clip-rule="evenodd" d="M108.457 27.459H108.457C110.454 27.459 112.088 29.0927 112.088 31.0896V33.8844C112.088 35.8813 110.454 37.5151 108.457 37.5151H108.457C106.46 37.5151 104.826 35.8813 104.826 33.8844V31.0896C104.826 29.0927 106.46 27.459 108.457 27.459Z" fill="#0E1B4F"/>
<path fill-rule="evenodd" clip-rule="evenodd" d="M95.3535 29.5049H95.3537C97.3504 29.5049 98.9841 31.1385 98.9841 33.1353V33.9229C98.9841 35.9197 97.3504 37.5533 95.3537 37.5533H95.3535C93.3567 37.5533 91.7231 35.9197 91.7231 33.9229V33.1353C91.7231 31.1385 93.3567 29.5049 95.3535 29.5049Z" fill="#0E1B4F"/>
<path fill-rule="evenodd" clip-rule="evenodd" d="M94.7216 19.0205H95.9858C97.6349 19.0205 98.9842 20.544 98.9842 22.4062V22.4063C98.9842 24.2684 97.6349 25.7919 95.9858 25.7919H94.7216C93.0724 25.7919 91.7231 24.2684 91.7231 22.4063V22.4062C91.7231 20.544 93.0724 19.0205 94.7216 19.0205Z" fill="#0E1B4F"/>
<path fill-rule="evenodd" clip-rule="evenodd" d="M173.973 34.6357H173.973C171.977 34.6357 170.343 33.002 170.343 31.0051V25.8339C170.343 23.837 171.977 22.2033 173.973 22.2033H173.973C175.971 22.2033 177.604 23.837 177.604 25.8339V31.0051C177.604 33.002 175.971 34.6357 173.973 34.6357Z" fill="#0E1B4F"/>
<path fill-rule="evenodd" clip-rule="evenodd" d="M187.332 37.2295H186.822C184.965 37.2295 183.446 35.7106 183.446 33.8541V33.8539C183.446 31.9973 184.965 30.4784 186.822 30.4784H187.332C189.189 30.4784 190.708 31.9973 190.708 33.8539V33.8541C190.708 35.7106 189.189 37.2295 187.332 37.2295Z" fill="#0E1B4F"/>
<path fill-rule="evenodd" clip-rule="evenodd" d="M134.664 34.0049H134.663C132.667 34.0049 131.033 32.3713 131.033 30.3745V26.8069C131.033 24.8101 132.667 23.1765 134.663 23.1765H134.664C136.66 23.1765 138.294 24.8101 138.294 26.8069V30.3745C138.294 32.3713 136.66 34.0049 134.664 34.0049Z" fill="#0E1B4F"/>
<path fill-rule="evenodd" clip-rule="evenodd" d="M121.838 37.5156H121.283C119.438 37.5156 117.93 36.0066 117.93 34.1622V34.162C117.93 32.3176 119.438 30.8086 121.283 30.8086H121.838C123.682 30.8086 125.191 32.3176 125.191 34.162V34.1622C125.191 36.0066 123.682 37.5156 121.838 37.5156Z" fill="#0E1B4F"/>
<path fill-rule="evenodd" clip-rule="evenodd" d="M160.933 35.6807H160.807C158.845 35.6807 157.239 34.0754 157.239 32.1133C157.239 30.1512 158.845 28.5459 160.807 28.5459H160.933C162.895 28.5459 164.501 30.1512 164.501 32.1133C164.501 34.0754 162.895 35.6807 160.933 35.6807Z" fill="#0E1B4F"/>
<path fill-rule="evenodd" clip-rule="evenodd" d="M160.87 23.7842H160.87C158.873 23.7842 157.239 22.1505 157.239 20.1535V15.3636C157.239 13.3667 158.873 11.733 160.87 11.733H160.87C162.867 11.733 164.501 13.3667 164.501 15.3636V20.1535C164.501 22.1505 162.867 23.7842 160.87 23.7842Z" fill="#0E1B4F"/>
<path fill-rule="evenodd" clip-rule="evenodd" d="M147.767 36.7852H147.767C145.77 36.7852 144.136 35.1514 144.136 33.1545V28.2982C144.136 26.3013 145.77 24.6676 147.767 24.6676H147.767C149.764 24.6676 151.398 26.3013 151.398 28.2982V33.1545C151.398 35.1514 149.764 36.7852 147.767 36.7852Z" fill="#0E1B4F"/>
<path fill-rule="evenodd" clip-rule="evenodd" d="M147.862 19.8535H147.672C145.727 19.8535 144.136 18.2624 144.136 16.3176V16.3175C144.136 14.3727 145.727 12.7816 147.672 12.7816H147.862C149.806 12.7816 151.398 14.3727 151.398 16.3175V16.3176C151.398 18.2624 149.806 19.8535 147.862 19.8535Z" fill="#0E1B4F"/>
<path fill-rule="evenodd" clip-rule="evenodd" d="M3.63076 40.0566H3.63087C5.62768 40.0566 7.2614 41.6904 7.2614 43.6873V48.8585C7.2614 50.8554 5.62768 52.4891 3.63087 52.4891H3.63076C1.63372 52.4891 0 50.8554 0 48.8585V43.6873C0 41.6904 1.63372 40.0566 3.63076 40.0566Z" fill="#0E1B4F"/>
<path fill-rule="evenodd" clip-rule="evenodd" d="M42.9405 46.2734H42.9407C44.9374 46.2734 46.5711 47.907 46.5711 49.9038V53.4714C46.5711 55.4682 44.9374 57.1018 42.9407 57.1018H42.9405C40.9437 57.1018 39.3101 55.4682 39.3101 53.4714V49.9038C39.3101 47.907 40.9437 46.2734 42.9405 46.2734Z" fill="#0E1B4F"/>
<path fill-rule="evenodd" clip-rule="evenodd" d="M16.6709 48.4502H16.7975C18.7596 48.4502 20.3649 50.0555 20.3649 52.0176C20.3649 53.9797 18.7596 55.585 16.7975 55.585H16.6709C14.7088 55.585 13.1035 53.9797 13.1035 52.0176C13.1035 50.0555 14.7088 48.4502 16.6709 48.4502Z" fill="#0E1B4F"/>
<path fill-rule="evenodd" clip-rule="evenodd" d="M16.7343 60.3467H16.7344C18.7312 60.3467 20.3649 61.9804 20.3649 63.9773V68.7672C20.3649 70.7641 18.7312 72.3979 16.7344 72.3979H16.7343C14.7372 72.3979 13.1035 70.7641 13.1035 68.7672V63.9773C13.1035 61.9804 14.7372 60.3467 16.7343 60.3467Z" fill="#0E1B4F"/>
<path fill-rule="evenodd" clip-rule="evenodd" d="M29.8374 43.4951H29.8375C31.8345 43.4951 33.4682 45.1288 33.4682 47.1258V51.9821C33.4682 53.979 31.8345 55.6127 29.8375 55.6127H29.8374C27.8405 55.6127 26.2068 53.979 26.2068 51.9821V47.1258C26.2068 45.1288 27.8405 43.4951 29.8374 43.4951Z" fill="#0E1B4F"/>
<path fill-rule="evenodd" clip-rule="evenodd" d="M29.7428 60.4248H29.9324C31.8772 60.4248 33.4683 62.0159 33.4683 63.9607V63.9608C33.4683 65.9056 31.8772 67.4967 29.9324 67.4967H29.7428C27.7979 67.4967 26.2069 65.9056 26.2069 63.9608V63.9607C26.2069 62.0159 27.7979 60.4248 29.7428 60.4248Z" fill="#0E1B4F"/>
<path d="M66.528 44.8513C69.2738 44.8513 71.6881 45.4352 73.7711 46.6029C75.8541 47.7706 77.4795 49.4591 78.6472 51.6683C79.8149 53.8776 80.3988 56.5602 80.3988 59.7162C80.3988 62.8722 79.8149 65.5706 78.6472 67.8114C77.4795 70.0206 75.8541 71.7091 73.7711 72.8769C71.7197 74.0446 69.3211 74.6284 66.5754 74.6284C63.8612 74.6284 61.4626 74.0446 59.3796 72.8769C57.3282 71.7091 55.7186 70.0206 54.5509 67.8114C53.3832 65.5706 52.7993 62.8722 52.7993 59.7162C52.7993 56.5602 53.3674 53.8776 54.5036 51.6683C55.6713 49.4591 57.2809 47.7706 59.3323 46.6029C61.4153 45.4352 63.8139 44.8513 66.528 44.8513ZM66.5754 49.4907C63.9243 49.4907 61.9045 50.3586 60.5158 52.0944C59.1587 53.8302 58.4802 56.3708 58.4802 59.7162C58.4802 63.0616 59.1587 65.618 60.5158 67.3854C61.9045 69.1212 63.9243 69.9891 66.5754 69.9891C69.2264 69.9891 71.2463 69.1212 72.6349 67.3854C74.0236 65.618 74.7179 63.0616 74.7179 59.7162C74.7179 56.3708 74.0236 53.8302 72.6349 52.0944C71.2779 50.3586 69.258 49.4907 66.5754 49.4907ZM100.47 74.6284C98.1342 74.6284 96.1143 74.4391 94.4101 74.0604C92.7374 73.7132 91.2856 73.3029 90.0547 72.8295L89.2026 66.3439L93.6526 65.8231L94.1734 69.279C95.0886 69.5946 96.0354 69.8313 97.0138 69.9891C97.9922 70.1469 99.0179 70.2258 100.091 70.2258C101.29 70.2258 102.395 70.0838 103.405 69.7997C104.415 69.4841 105.219 69.0265 105.819 68.4269C106.419 67.7956 106.719 67.0066 106.719 66.0598C106.719 65.0815 106.403 64.2293 105.772 63.5034C105.172 62.7776 103.894 62.2568 101.937 61.9412L98.5287 61.3731C95.6883 60.8682 93.5106 59.9214 91.9957 58.5327C90.4808 57.1441 89.7234 55.3293 89.7234 53.0886C89.7234 51.2896 90.2125 49.7747 91.1909 48.5439C92.1693 47.313 93.4948 46.3978 95.1675 45.7981C96.8402 45.1669 98.718 44.8513 100.801 44.8513C101.843 44.8513 102.868 44.9144 103.878 45.0407C104.888 45.1669 105.866 45.3563 106.813 45.6088C107.76 45.8612 108.707 46.1926 109.654 46.6029L110.553 53.562L105.772 54.0827L105.156 49.8221C104.525 49.6011 103.815 49.4276 103.026 49.3013C102.269 49.1751 101.464 49.112 100.612 49.112C98.7496 49.112 97.2821 49.4433 96.209 50.1061C95.1675 50.7373 94.6468 51.6052 94.6468 52.7098C94.6468 53.8144 95.0255 54.6823 95.7829 55.3136C96.5719 55.9132 97.8501 56.3708 99.6175 56.6864L103.168 57.2545C106.229 57.7279 108.407 58.6589 109.701 60.0476C110.995 61.4047 111.642 63.1721 111.642 65.3497C111.642 67.1802 111.295 68.6951 110.6 69.8944C109.938 71.0937 109.054 72.0405 107.949 72.7348C106.845 73.4292 105.63 73.9183 104.304 74.2024C102.979 74.4864 101.7 74.6284 100.47 74.6284ZM120.286 45.7981L132.5 45.8455V50.5795H129.801L129.754 57.2072H141.684L141.731 50.5795H138.986V45.7981H151.199V50.5795H147.223L147.175 68.9003H151.199V73.6816H139.033V68.9003H141.684V61.9412H129.754V68.9003H132.405V73.6816H120.239V68.9003H124.263L124.31 50.5795H120.286V45.7981ZM159.924 45.7981H181.417L184.21 54.1774L179.713 55.6923L177.914 50.5795H169.44V57.1125H177.488V61.8465H169.44V68.9003H179.097L180.849 64.1662L185.299 65.7284L182.553 73.6816H159.877V68.9003H163.901L163.948 50.5795H159.924V45.7981ZM193.459 73.6816V68.9003H197.436V50.5795H193.459V45.7981H206.004C208.876 45.7981 211.117 46.1769 212.727 46.9343C214.336 47.6602 215.457 48.7175 216.088 50.1061C216.719 51.4632 217.035 53.0728 217.035 54.9348C217.035 57.9962 216.214 60.3001 214.573 61.8465C212.963 63.3614 210.454 64.1189 207.046 64.1189H202.927V68.9003H205.389V73.6816H193.459ZM202.975 59.3848H205.768C207.125 59.3848 208.198 59.2586 208.987 59.0061C209.807 58.7536 210.407 58.3118 210.786 57.6806C211.164 57.0178 211.354 56.1183 211.354 54.9822C211.354 53.7829 211.133 52.8676 210.691 52.2364C210.249 51.6052 209.618 51.1792 208.797 50.9582C207.977 50.7058 206.967 50.5795 205.768 50.5795H202.975V59.3848ZM211.78 73.6816L206.288 63.5508L211.401 62.6987L215.141 68.9003H219.875V73.6816H211.78Z" fill="#0E1B4F"/>
</svg>
