<svg width="157" height="137" viewBox="0 0 157 137" fill="none" xmlns="http://www.w3.org/2000/svg">
<path fill-rule="evenodd" clip-rule="evenodd" d="M78.4684 16.8174H78.4685C80.7753 16.8174 82.6626 18.7046 82.6626 21.0115V34.3989C82.6626 36.7058 80.7753 38.593 78.4685 38.593H78.4684C76.1615 38.593 74.2743 36.7058 74.2743 34.3989V21.0115C74.2743 18.7046 76.1615 16.8174 78.4684 16.8174Z" fill="#0E1B4F"/>
<path fill-rule="evenodd" clip-rule="evenodd" d="M40.984 29.7192H40.9841C43.2908 29.7192 45.1781 31.6065 45.1781 33.9133V37.0345C45.1781 39.3413 43.2908 41.2286 40.9841 41.2286H40.984C38.6771 41.2286 36.7898 39.3413 36.7898 37.0345V33.9133C36.7898 31.6065 38.6771 29.7192 40.984 29.7192Z" fill="#0E1B4F"/>
<path fill-rule="evenodd" clip-rule="evenodd" d="M59.7268 11.8936H59.7269C62.0336 11.8936 63.9209 13.7808 63.9209 16.0875V37.7605C63.9209 40.0674 62.0336 41.9546 59.7269 41.9546H59.7268C57.4198 41.9546 55.5326 40.0674 55.5326 37.7605V16.0875C55.5326 13.7808 57.4198 11.8936 59.7268 11.8936Z" fill="#0E1B4F"/>
<path fill-rule="evenodd" clip-rule="evenodd" d="M97.2103 5.78467H97.2104C99.5173 5.78467 101.405 7.67192 101.405 9.97874V40.1846C101.405 42.4914 99.5173 44.3787 97.2104 44.3787H97.2103C94.9035 44.3787 93.0162 42.4914 93.0162 40.1846V9.97874C93.0162 7.67192 94.9035 5.78467 97.2103 5.78467Z" fill="#0E1B4F"/>
<path fill-rule="evenodd" clip-rule="evenodd" d="M22.2422 27.0342H22.2423C24.549 27.0342 26.4363 28.9214 26.4363 31.2283V40.4712C26.4363 42.7781 24.549 44.6653 22.2423 44.6653H22.2422C19.9352 44.6653 18.048 42.7781 18.048 40.4712V31.2283C18.048 28.9214 19.9352 27.0342 22.2422 27.0342Z" fill="#0E1B4F"/>
<path fill-rule="evenodd" clip-rule="evenodd" d="M115.952 31.1851H115.953C118.259 31.1851 120.146 33.0722 120.146 35.3789V36.2887C120.146 38.5954 118.259 40.4825 115.953 40.4825H115.952C113.646 40.4825 111.759 38.5954 111.759 36.2887V35.3789C111.759 33.0722 113.646 31.1851 115.952 31.1851Z" fill="#0E1B4F"/>
<path fill-rule="evenodd" clip-rule="evenodd" d="M134.695 28.8228H134.695C137.002 28.8228 138.889 30.71 138.889 33.0168V36.2453C138.889 38.5522 137.002 40.4394 134.695 40.4394H134.695C132.388 40.4394 130.5 38.5522 130.5 36.2453V33.0168C130.5 30.71 132.388 28.8228 134.695 28.8228Z" fill="#0E1B4F"/>
<path fill-rule="evenodd" clip-rule="evenodd" d="M40.984 1.1167H40.9841C43.2908 1.1167 45.1781 3.00396 45.1781 5.31078V21.4951C45.1781 23.8019 43.2908 25.6891 40.9841 25.6891H40.984C38.6771 25.6891 36.7898 23.8019 36.7898 21.4951V5.31078C36.7898 3.00396 38.6771 1.1167 40.984 1.1167Z" fill="#0E1B4F"/>
<path fill-rule="evenodd" clip-rule="evenodd" d="M115.222 19.0732H116.683C118.588 19.0732 120.146 20.8332 120.146 22.9843V22.9845C120.146 25.1356 118.588 26.8955 116.683 26.8955H115.222C113.317 26.8955 111.759 25.1356 111.759 22.9845V22.9843C111.759 20.8332 113.317 19.0732 115.222 19.0732Z" fill="#0E1B4F"/>
<path fill-rule="evenodd" clip-rule="evenodd" d="M115.952 0H115.953C118.259 0 120.146 1.88713 120.146 4.19382V10.4588C120.146 12.7655 118.259 14.6526 115.953 14.6526H115.952C113.646 14.6526 111.759 12.7655 111.759 10.4588V4.19382C111.759 1.88713 113.646 0 115.952 0Z" fill="#0E1B4F"/>
<path fill-rule="evenodd" clip-rule="evenodd" d="M134.695 5.49316H134.695C137.002 5.49316 138.889 7.38042 138.889 9.68724V17.8853C138.889 20.1921 137.002 22.0793 134.695 22.0793H134.695C132.388 22.0793 130.5 20.1921 130.5 17.8853V9.68724C130.5 7.38042 132.388 5.49316 134.695 5.49316Z" fill="#0E1B4F"/>
<path fill-rule="evenodd" clip-rule="evenodd" d="M22.2422 6.36377H22.2423C24.549 6.36377 26.4363 8.25102 26.4363 10.5578V18.7477C26.4363 21.0545 24.549 22.9418 22.2423 22.9418H22.2422C19.9352 22.9418 18.048 21.0545 18.048 18.7477V10.5578C18.048 8.25102 19.9352 6.36377 22.2422 6.36377Z" fill="#0E1B4F"/>
<path fill-rule="evenodd" clip-rule="evenodd" d="M82.6578 97.6226C82.6615 97.699 82.6634 97.7767 82.6634 97.8533V106.4C81.7153 107.167 81.3309 108.145 81.3309 109.242C81.3309 110.339 81.7153 111.364 82.6634 112.023V132.149C82.6634 134.603 80.7755 136.612 78.4694 136.612H78.4692C76.1633 136.612 74.2751 134.604 74.2751 132.149V112.048C75.2403 111.324 75.7051 110.293 75.7051 109.169C75.7051 108.044 75.2548 107.028 74.2751 106.32V97.8533C74.2751 97.7759 74.2771 97.699 74.2808 97.6226H82.6578Z" fill="#0E1B4F"/>
<path fill-rule="evenodd" clip-rule="evenodd" d="M40.9844 100.212H40.9845C43.2912 100.212 45.1785 102.1 45.1785 104.406V110.38C45.1785 112.687 43.2912 114.574 40.9845 114.574H40.9844C38.6774 114.574 36.7902 112.687 36.7902 110.38V104.406C36.7902 102.1 38.6774 100.212 40.9844 100.212Z" fill="#0E1B4F"/>
<path fill-rule="evenodd" clip-rule="evenodd" d="M59.6539 99.0044H59.8001C62.0667 99.0044 63.9211 100.859 63.9211 103.125C63.9211 105.392 62.0667 107.246 59.8001 107.246H59.6539C57.3873 107.246 55.5328 105.392 55.5328 103.125C55.5328 100.859 57.3873 99.0044 59.6539 99.0044Z" fill="#0E1B4F"/>
<path fill-rule="evenodd" clip-rule="evenodd" d="M97.2109 97.7295H97.2111C99.5179 97.7295 101.405 99.6167 101.405 101.924V107.534C101.405 109.84 99.5179 111.728 97.2111 111.728H97.2109C94.9041 111.728 93.0168 109.84 93.0168 107.534V101.924C93.0168 99.6167 94.9041 97.7295 97.2109 97.7295Z" fill="#0E1B4F"/>
<path fill-rule="evenodd" clip-rule="evenodd" d="M21.9477 97.2158H22.5374C24.6822 97.2158 26.4366 98.9704 26.4366 101.115V101.115C26.4366 103.26 24.6822 105.015 22.5374 105.015H21.9477C19.8031 105.015 18.0483 103.26 18.0483 101.115V101.115C18.0483 98.9704 19.8031 97.2158 21.9477 97.2158Z" fill="#0E1B4F"/>
<path fill-rule="evenodd" clip-rule="evenodd" d="M115.953 100.941H115.953C118.26 100.941 120.147 102.829 120.147 105.135V109.256C120.147 111.563 118.26 113.45 115.953 113.45H115.953C113.646 113.45 111.759 111.563 111.759 109.256V105.135C111.759 102.829 113.646 100.941 115.953 100.941Z" fill="#0E1B4F"/>
<path fill-rule="evenodd" clip-rule="evenodd" d="M134.375 96.8848H135.015C137.146 96.8848 138.889 98.6279 138.889 100.759V100.759C138.889 102.89 137.146 104.633 135.015 104.633H134.375C132.244 104.633 130.501 102.89 130.501 100.759V100.759C130.501 98.6279 132.244 96.8848 134.375 96.8848Z" fill="#0E1B4F"/>
<path fill-rule="evenodd" clip-rule="evenodd" d="M59.727 112.747H59.7272C62.0339 112.747 63.9211 114.634 63.9211 116.941V122.474C63.9211 124.781 62.0339 126.668 59.7272 126.668H59.727C57.4201 126.668 55.5328 124.781 55.5328 122.474V116.941C55.5328 114.634 57.4201 112.747 59.727 112.747Z" fill="#0E1B4F"/>
<path fill-rule="evenodd" clip-rule="evenodd" d="M97.1015 117.288H97.3205C99.5671 117.288 101.405 119.126 101.405 121.373V121.373C101.405 123.619 99.5671 125.458 97.3205 125.458H97.1015C94.8548 125.458 93.0168 123.619 93.0168 121.373V121.373C93.0168 119.126 94.8548 117.288 97.1015 117.288Z" fill="#0E1B4F"/>
<path d="M18.9902 81.2002V82.8391H21.7443C21.9865 82.8391 22.1808 82.9067 22.3272 83.0419C22.4793 83.1771 22.5553 83.3517 22.5553 83.5657C22.5553 83.7797 22.4793 83.9543 22.3272 84.0895C22.1752 84.2246 21.9809 84.2922 21.7443 84.2922H18.9902V88.8628C18.9902 89.0599 19.0549 89.2261 19.1845 89.3612C19.3196 89.4908 19.4858 89.5555 19.6829 89.5555H21.1191C21.2712 89.5555 21.4064 89.5133 21.5246 89.4288C21.6429 89.3387 21.733 89.212 21.795 89.0486C21.8006 89.0317 21.8147 88.9923 21.8372 88.9304C21.9668 88.5305 22.2005 88.3305 22.5384 88.3305C22.7356 88.3305 22.9017 88.4009 23.0369 88.5417C23.1777 88.6769 23.2481 88.8346 23.2481 89.0148C23.2481 89.5161 23.0341 89.9723 22.606 90.3835C22.178 90.8003 21.6767 91.0086 21.1022 91.0086H19.6829C19.0859 91.0086 18.5762 90.7946 18.1538 90.3666C17.7314 89.9442 17.5201 89.4373 17.5201 88.8459V84.2922H16.9119C16.6641 84.2922 16.4669 84.2275 16.3205 84.0979C16.174 83.9628 16.1008 83.7853 16.1008 83.5657C16.1008 83.3573 16.1769 83.1855 16.3289 83.0503C16.481 82.9095 16.6753 82.8391 16.9119 82.8391H17.5201V81.2002C17.5201 80.9523 17.5849 80.758 17.7145 80.6172C17.8496 80.4764 18.027 80.406 18.2467 80.406C18.4607 80.406 18.6381 80.4792 18.7789 80.6257C18.9197 80.7721 18.9902 80.9636 18.9902 81.2002Z" fill="#0E1B4F"/>
<path d="M29.5843 84.2753C29.5111 84.2753 29.4351 84.2922 29.3562 84.326C29.283 84.3542 29.207 84.3964 29.1281 84.4528L28.5114 84.9681C28.4325 85.0301 28.3678 85.1117 28.3171 85.2131C28.272 85.3089 28.2495 85.4074 28.2495 85.5088V86.4888H32.5074V85.5088C32.5074 85.4074 32.4821 85.3089 32.4314 85.2131C32.3864 85.1117 32.3272 85.0329 32.254 84.9765L31.6204 84.4528C31.5472 84.3964 31.4711 84.3542 31.3923 84.326C31.3191 84.2922 31.2458 84.2753 31.1726 84.2753H29.5843ZM29.5674 82.8391H31.1726C31.4148 82.8391 31.6542 82.8842 31.8907 82.9743C32.1329 83.0588 32.3554 83.1827 32.5581 83.346L33.1833 83.8445C33.4199 84.0416 33.6085 84.2894 33.7494 84.5879C33.8902 84.8864 33.9606 85.1934 33.9606 85.5088V87.2407C33.9606 87.4491 33.8845 87.6237 33.7325 87.7645C33.5804 87.8997 33.3861 87.9673 33.1495 87.9673H28.2495V88.3474C28.2495 88.4488 28.272 88.5474 28.3171 88.6431C28.3678 88.7389 28.4325 88.8177 28.5114 88.8797L29.1281 89.4035C29.1957 89.4542 29.2633 89.4936 29.3309 89.5217C29.4041 89.5443 29.4886 89.5555 29.5843 89.5555H33.1495C33.3917 89.5555 33.586 89.6231 33.7325 89.7583C33.8845 89.8935 33.9606 90.0681 33.9606 90.2821C33.9606 90.4961 33.8845 90.6707 33.7325 90.8059C33.5804 90.9411 33.3861 91.0086 33.1495 91.0086H29.5674C29.3253 91.0086 29.0887 90.9664 28.8578 90.8819C28.6269 90.7974 28.4072 90.6735 28.1988 90.5102L27.5736 89.9864C27.3315 89.7893 27.14 89.5443 26.9992 89.2514C26.864 88.9585 26.7964 88.6572 26.7964 88.3474V85.5088C26.7964 85.1934 26.864 84.8864 26.9992 84.5879C27.14 84.2894 27.3315 84.0416 27.5736 83.8445L28.1988 83.346C28.4072 83.1771 28.6269 83.0503 28.8578 82.9659C29.0887 82.8814 29.3253 82.8391 29.5674 82.8391Z" fill="#0E1B4F"/>
<path d="M40.9473 82.8391H43.8451C44.0816 82.8391 44.2759 82.9095 44.428 83.0503C44.5801 83.1855 44.6561 83.3573 44.6561 83.5657C44.6561 83.7853 44.5829 83.9599 44.4365 84.0895C44.2957 84.2134 44.0985 84.2753 43.8451 84.2753H40.9473C40.8628 84.2753 40.7812 84.2951 40.7023 84.3345C40.6235 84.3683 40.539 84.4246 40.4489 84.5034L39.1563 85.6271C39.0943 85.6778 39.0436 85.7482 39.0042 85.8383C38.9648 85.9284 38.9451 86.0185 38.9451 86.1086V87.7223C38.9451 87.818 38.9648 87.9137 39.0042 88.0095C39.0436 88.0996 39.0915 88.17 39.1478 88.2207L40.4573 89.3528C40.5587 89.4316 40.646 89.4851 40.7192 89.5133C40.7924 89.5415 40.8685 89.5555 40.9473 89.5555H43.8451C44.0873 89.5555 44.2816 89.6231 44.428 89.7583C44.5801 89.8935 44.6561 90.0681 44.6561 90.2821C44.6561 90.4961 44.5801 90.6707 44.428 90.8059C44.2759 90.9411 44.0816 91.0086 43.8451 91.0086H40.9473C40.7051 91.0086 40.4545 90.9608 40.1954 90.865C39.942 90.7749 39.7279 90.6566 39.5533 90.5102L38.2523 89.3612C38.0045 89.1416 37.8158 88.8909 37.6863 88.6093C37.5567 88.3277 37.492 88.032 37.492 87.7223V86.1255C37.492 85.8214 37.5567 85.5285 37.6863 85.2469C37.8158 84.9597 38.0045 84.7062 38.2523 84.4865L39.5533 83.346C39.7279 83.194 39.942 83.0729 40.1954 82.9827C40.4545 82.887 40.7051 82.8391 40.9473 82.8391Z" fill="#0E1B4F"/>
<path d="M49.6406 80.6088V84.0388L50.6967 83.346C50.7192 83.3291 50.7473 83.3094 50.7811 83.2869C51.2205 82.9884 51.6541 82.8391 52.0822 82.8391H52.9946C53.586 82.8391 54.0872 83.0419 54.4984 83.4474C54.9152 83.8529 55.1348 84.3655 55.1574 84.985L55.3348 90.1807V90.2145C55.3348 90.4398 55.2672 90.6285 55.132 90.7805C54.9969 90.9326 54.8335 91.0086 54.642 91.0086C54.4224 91.0086 54.2421 90.9382 54.1013 90.7974C53.9662 90.6566 53.8929 90.468 53.8817 90.2314L53.7043 84.985C53.693 84.7822 53.6198 84.6161 53.4846 84.4865C53.3551 84.357 53.1917 84.2922 52.9946 84.2922H52.0653C51.9808 84.2922 51.902 84.3063 51.8287 84.3345C51.7612 84.3626 51.6654 84.419 51.5415 84.5034L49.6406 85.7876V90.1976C49.6406 90.4398 49.573 90.6341 49.4379 90.7805C49.3027 90.9326 49.1281 91.0086 48.9141 91.0086C48.7 91.0086 48.5254 90.9326 48.3903 90.7805C48.2551 90.6285 48.1875 90.4342 48.1875 90.1976V80.6088C48.1875 80.361 48.2523 80.1638 48.3818 80.0174C48.517 79.871 48.6944 79.7977 48.9141 79.7977C49.1225 79.7977 49.2942 79.8738 49.4294 80.0258C49.5702 80.1779 49.6406 80.3722 49.6406 80.6088Z" fill="#0E1B4F"/>
<path d="M60.3362 83.6586V84.1064L61.181 83.5319L61.2317 83.4981C61.8512 83.0588 62.4342 82.8391 62.9805 82.8391H63.6395C64.3773 82.8391 64.9292 83.0616 65.2953 83.5065C65.6614 83.9515 65.8586 84.633 65.8867 85.551L66.0472 90.1976V90.2314C66.0472 90.4567 65.9768 90.6426 65.836 90.789C65.7009 90.9354 65.5291 91.0086 65.3207 91.0086C65.1067 91.0086 64.9349 90.9354 64.8053 90.789C64.6758 90.6482 64.6054 90.4511 64.5941 90.1976L64.4167 85.5003C64.3998 85.0948 64.3153 84.7963 64.1633 84.6048C64.0168 84.4077 63.7972 84.3091 63.5043 84.3091H63.0312C62.7721 84.3091 62.4511 84.433 62.0681 84.6809L62.0174 84.7147L60.3362 85.8214V90.1976C60.3362 90.4398 60.2686 90.6341 60.1334 90.7805C59.9983 90.9326 59.8237 91.0086 59.6096 91.0086C59.3956 91.0086 59.221 90.9326 59.0858 90.7805C58.9507 90.6285 58.8831 90.4342 58.8831 90.1976V83.6586C58.8831 83.4108 58.9478 83.2137 59.0774 83.0672C59.2126 82.9152 59.39 82.8391 59.6096 82.8391C59.818 82.8391 59.9898 82.9152 60.125 83.0672C60.2658 83.2193 60.3362 83.4164 60.3362 83.6586Z" fill="#0E1B4F"/>
<path d="M72.3666 84.2753C72.2934 84.2753 72.2173 84.2922 72.1385 84.326C72.0653 84.3542 71.9892 84.3964 71.9104 84.4528L71.2936 84.9681C71.2148 85.0301 71.15 85.1117 71.0993 85.2131C71.0543 85.3089 71.0317 85.4074 71.0317 85.5088V88.3474C71.0317 88.4488 71.0543 88.5474 71.0993 88.6431C71.15 88.7389 71.2148 88.8177 71.2936 88.8797L71.9188 89.4035C71.9864 89.4542 72.0568 89.4936 72.13 89.5217C72.2089 89.5443 72.2877 89.5555 72.3666 89.5555H73.9549C74.0337 89.5555 74.1126 89.5415 74.1914 89.5133C74.2703 89.4851 74.3435 89.4457 74.4111 89.395L75.0278 88.8797C75.101 88.8233 75.163 88.7445 75.2137 88.6431C75.2643 88.5417 75.2897 88.4432 75.2897 88.3474V85.5088C75.2897 85.4074 75.2643 85.3089 75.2137 85.2131C75.1686 85.1117 75.1095 85.0329 75.0362 84.9765L74.4026 84.4528C74.3294 84.3964 74.2534 84.3542 74.1745 84.326C74.1013 84.2922 74.0281 84.2753 73.9549 84.2753H72.3666ZM72.3497 82.8391H73.9549C74.197 82.8391 74.4364 82.8842 74.673 82.9743C74.9151 83.0588 75.1376 83.1827 75.3404 83.346L75.9656 83.8445C76.2021 84.0416 76.3908 84.2894 76.5316 84.5879C76.6724 84.8864 76.7428 85.1934 76.7428 85.5088V88.3474C76.7428 88.6572 76.6724 88.9585 76.5316 89.2514C76.3964 89.5443 76.2077 89.7893 75.9656 89.9864L75.3404 90.5102C75.1376 90.6679 74.9151 90.789 74.673 90.8735C74.4364 90.9636 74.197 91.0086 73.9549 91.0086H72.3497C72.1075 91.0086 71.8709 90.9664 71.64 90.8819C71.4091 90.7974 71.1894 90.6735 70.9811 90.5102L70.3559 89.9864C70.1137 89.7893 69.9222 89.5443 69.7814 89.2514C69.6462 88.9585 69.5786 88.6572 69.5786 88.3474V85.5088C69.5786 85.1934 69.6462 84.8864 69.7814 84.5879C69.9222 84.2894 70.1137 84.0416 70.3559 83.8445L70.9811 83.346C71.1894 83.1771 71.4091 83.0503 71.64 82.9659C71.8709 82.8814 72.1075 82.8391 72.3497 82.8391Z" fill="#0E1B4F"/>
<path d="M81.7949 79.7977H83.7718C84.014 79.7977 84.2083 79.8653 84.3547 80.0005C84.5068 80.1357 84.5828 80.3103 84.5828 80.5243V89.5555H85.9177C86.1542 89.5555 86.3457 89.6231 86.4922 89.7583C86.6386 89.8878 86.7118 90.0624 86.7118 90.2821C86.7118 90.4961 86.6358 90.6707 86.4837 90.8059C86.3373 90.9411 86.1486 91.0086 85.9177 91.0086H81.7949C81.5527 91.0086 81.3556 90.9411 81.2035 90.8059C81.0571 90.6707 80.9839 90.4961 80.9839 90.2821C80.9839 90.0681 81.0599 89.8935 81.212 89.7583C81.364 89.6231 81.5583 89.5555 81.7949 89.5555H83.1128V81.2508H81.7949C81.5471 81.2508 81.35 81.1861 81.2035 81.0565C81.0571 80.9214 80.9839 80.7439 80.9839 80.5243C80.9839 80.3103 81.0599 80.1357 81.212 80.0005C81.364 79.8653 81.5583 79.7977 81.7949 79.7977Z" fill="#0E1B4F"/>
<path d="M93.7577 84.2753C93.6845 84.2753 93.6084 84.2922 93.5296 84.326C93.4564 84.3542 93.3803 84.3964 93.3015 84.4528L92.6848 84.9681C92.6059 85.0301 92.5411 85.1117 92.4905 85.2131C92.4454 85.3089 92.4229 85.4074 92.4229 85.5088V88.3474C92.4229 88.4488 92.4454 88.5474 92.4905 88.6431C92.5411 88.7389 92.6059 88.8177 92.6848 88.8797L93.3099 89.4035C93.3775 89.4542 93.4479 89.4936 93.5211 89.5217C93.6 89.5443 93.6788 89.5555 93.7577 89.5555H95.346C95.4248 89.5555 95.5037 89.5415 95.5825 89.5133C95.6614 89.4851 95.7346 89.4457 95.8022 89.395L96.4189 88.8797C96.4921 88.8233 96.5541 88.7445 96.6048 88.6431C96.6555 88.5417 96.6808 88.4432 96.6808 88.3474V85.5088C96.6808 85.4074 96.6555 85.3089 96.6048 85.2131C96.5597 85.1117 96.5006 85.0329 96.4274 84.9765L95.7937 84.4528C95.7205 84.3964 95.6445 84.3542 95.5656 84.326C95.4924 84.2922 95.4192 84.2753 95.346 84.2753H93.7577ZM93.7408 82.8391H95.346C95.5882 82.8391 95.8275 82.8842 96.0641 82.9743C96.3063 83.0588 96.5287 83.1827 96.7315 83.346L97.3567 83.8445C97.5932 84.0416 97.7819 84.2894 97.9227 84.5879C98.0635 84.8864 98.1339 85.1934 98.1339 85.5088V88.3474C98.1339 88.6572 98.0635 88.9585 97.9227 89.2514C97.7875 89.5443 97.5989 89.7893 97.3567 89.9864L96.7315 90.5102C96.5287 90.6679 96.3063 90.789 96.0641 90.8735C95.8275 90.9636 95.5882 91.0086 95.346 91.0086H93.7408C93.4986 91.0086 93.2621 90.9664 93.0311 90.8819C92.8002 90.7974 92.5806 90.6735 92.3722 90.5102L91.747 89.9864C91.5048 89.7893 91.3133 89.5443 91.1725 89.2514C91.0373 88.9585 90.9698 88.6572 90.9698 88.3474V85.5088C90.9698 85.1934 91.0373 84.8864 91.1725 84.5879C91.3133 84.2894 91.5048 84.0416 91.747 83.8445L92.3722 83.346C92.5806 83.1771 92.8002 83.0503 93.0311 82.9659C93.2621 82.8814 93.4986 82.8391 93.7408 82.8391Z" fill="#0E1B4F"/>
<path d="M107.359 83.6417C107.359 83.3995 107.424 83.2052 107.554 83.0588C107.689 82.9123 107.866 82.8391 108.086 82.8391C108.3 82.8391 108.477 82.9152 108.618 83.0672C108.759 83.2137 108.829 83.4052 108.829 83.6417V91.3888C108.829 91.6986 108.759 91.9999 108.618 92.2928C108.483 92.5857 108.294 92.8335 108.052 93.0362L107.41 93.5516C107.202 93.7149 106.982 93.8388 106.751 93.9233C106.52 94.0078 106.284 94.05 106.042 94.05H103.203C102.966 94.05 102.772 93.9825 102.62 93.8473C102.468 93.7121 102.392 93.5375 102.392 93.3235C102.392 93.1095 102.465 92.9349 102.612 92.7997C102.764 92.6645 102.961 92.5969 103.203 92.5969H106.025C106.132 92.5969 106.219 92.5857 106.287 92.5631C106.354 92.5406 106.422 92.5012 106.489 92.4449L107.123 91.9211C107.191 91.8647 107.244 91.7887 107.283 91.693C107.329 91.6028 107.354 91.5015 107.359 91.3888V90.0371L106.819 90.5102C106.639 90.6679 106.425 90.789 106.177 90.8735C105.935 90.9636 105.687 91.0086 105.433 91.0086H104.31C104.056 91.0086 103.814 90.9664 103.583 90.8819C103.358 90.8031 103.138 90.6792 102.924 90.5102L102.426 90.13C102.206 89.9554 102.02 89.7161 101.868 89.4119C101.722 89.1078 101.648 88.8149 101.648 88.5333V85.3652C101.648 85.061 101.719 84.7569 101.86 84.4528C102.006 84.1486 102.195 83.9064 102.426 83.7262L102.924 83.346C103.138 83.1771 103.358 83.0503 103.583 82.9659C103.814 82.8814 104.056 82.8391 104.31 82.8391H105.433C105.687 82.8391 105.935 82.8842 106.177 82.9743C106.425 83.0644 106.639 83.1883 106.819 83.346L107.359 83.8107V83.6417ZM107.376 87.8574V86.0072C107.376 85.9115 107.354 85.8157 107.309 85.72C107.269 85.6243 107.221 85.5539 107.165 85.5088L105.94 84.5034C105.856 84.4359 105.768 84.3852 105.678 84.3514C105.594 84.3119 105.512 84.2922 105.433 84.2922H104.31C104.22 84.2922 104.135 84.3091 104.056 84.3429C103.977 84.3711 103.896 84.4246 103.811 84.5034L103.33 84.8836C103.268 84.9343 103.217 85.0075 103.178 85.1033C103.138 85.1934 103.118 85.2863 103.118 85.3821V88.4826C103.118 88.5727 103.138 88.6656 103.178 88.7614C103.217 88.8515 103.268 88.9191 103.33 88.9642L103.803 89.3443L103.828 89.3612C103.991 89.4908 104.152 89.5555 104.31 89.5555H105.433C105.529 89.5555 105.616 89.5386 105.695 89.5048C105.774 89.4711 105.856 89.4175 105.94 89.3443L107.165 88.3643C107.221 88.3136 107.269 88.2404 107.309 88.1447C107.354 88.0489 107.376 87.9532 107.376 87.8574Z" fill="#0E1B4F"/>
<path d="M113.882 82.8391H115.858C116.101 82.8391 116.295 82.9067 116.441 83.0419C116.593 83.1771 116.67 83.3517 116.67 83.5657V89.5555H118.004C118.241 89.5555 118.432 89.6231 118.579 89.7583C118.725 89.8878 118.798 90.0624 118.798 90.2821C118.798 90.4961 118.722 90.6707 118.57 90.8059C118.424 90.9411 118.235 91.0086 118.004 91.0086H113.882C113.639 91.0086 113.442 90.9411 113.29 90.8059C113.144 90.6707 113.071 90.4961 113.071 90.2821C113.071 90.0681 113.147 89.8935 113.299 89.7583C113.451 89.6231 113.645 89.5555 113.882 89.5555H115.2V84.2922H113.882C113.634 84.2922 113.437 84.2275 113.29 84.0979C113.144 83.9628 113.071 83.7853 113.071 83.5657C113.071 83.3573 113.147 83.1855 113.299 83.0503C113.451 82.9095 113.645 82.8391 113.882 82.8391ZM115.301 79.1895H116.011C116.174 79.1895 116.323 79.2627 116.458 79.4091C116.599 79.5555 116.67 79.7245 116.67 79.916V80.5243C116.67 80.7327 116.593 80.9073 116.441 81.0481C116.289 81.1833 116.095 81.2508 115.858 81.2508H115.301C115.053 81.2508 114.856 81.1861 114.71 81.0565C114.563 80.9214 114.49 80.7439 114.49 80.5243V79.916C114.49 79.702 114.563 79.5274 114.71 79.3922C114.862 79.257 115.059 79.1895 115.301 79.1895Z" fill="#0E1B4F"/>
<path d="M125.844 84.2753C125.771 84.2753 125.695 84.2922 125.616 84.326C125.543 84.3542 125.467 84.3964 125.388 84.4528L124.771 84.9681C124.693 85.0301 124.628 85.1117 124.577 85.2131C124.532 85.3089 124.51 85.4074 124.51 85.5088V86.4888H128.768V85.5088C128.768 85.4074 128.742 85.3089 128.691 85.2131C128.646 85.1117 128.587 85.0329 128.514 84.9765L127.88 84.4528C127.807 84.3964 127.731 84.3542 127.652 84.326C127.579 84.2922 127.506 84.2753 127.433 84.2753H125.844ZM125.827 82.8391H127.433C127.675 82.8391 127.914 82.8842 128.151 82.9743C128.393 83.0588 128.615 83.1827 128.818 83.346L129.443 83.8445C129.68 84.0416 129.869 84.2894 130.009 84.5879C130.15 84.8864 130.221 85.1934 130.221 85.5088V87.2407C130.221 87.4491 130.145 87.6237 129.993 87.7645C129.84 87.8997 129.646 87.9673 129.41 87.9673H124.51V88.3474C124.51 88.4488 124.532 88.5474 124.577 88.6431C124.628 88.7389 124.693 88.8177 124.771 88.8797L125.388 89.4035C125.456 89.4542 125.523 89.4936 125.591 89.5217C125.664 89.5443 125.749 89.5555 125.844 89.5555H129.41C129.652 89.5555 129.846 89.6231 129.993 89.7583C130.145 89.8935 130.221 90.0681 130.221 90.2821C130.221 90.4961 130.145 90.6707 129.993 90.8059C129.84 90.9411 129.646 91.0086 129.41 91.0086H125.827C125.585 91.0086 125.349 90.9664 125.118 90.8819C124.887 90.7974 124.667 90.6735 124.459 90.5102L123.834 89.9864C123.592 89.7893 123.4 89.5443 123.259 89.2514C123.124 88.9585 123.056 88.6572 123.056 88.3474V85.5088C123.056 85.1934 123.124 84.8864 123.259 84.5879C123.4 84.2894 123.592 84.0416 123.834 83.8445L124.459 83.346C124.667 83.1771 124.887 83.0503 125.118 82.9659C125.349 82.8814 125.585 82.8391 125.827 82.8391Z" fill="#0E1B4F"/>
<path d="M135.78 82.8391H138.855C139.328 82.8391 139.759 82.9856 140.147 83.2784C140.542 83.5713 140.739 83.8698 140.739 84.174C140.739 84.3767 140.666 84.5485 140.519 84.6893C140.378 84.8301 140.209 84.9005 140.012 84.9005C139.832 84.9005 139.638 84.7991 139.429 84.5964C139.227 84.3936 139.029 84.2922 138.838 84.2922H135.78C135.656 84.2922 135.554 84.3345 135.475 84.419C135.397 84.4978 135.357 84.6076 135.357 84.7484C135.357 84.8104 135.383 84.8752 135.433 84.9428C135.484 85.0103 135.546 85.061 135.619 85.0948L139.548 86.7676C139.964 86.9535 140.294 87.2294 140.536 87.5955C140.778 87.956 140.899 88.3615 140.899 88.8121C140.899 89.4147 140.682 89.9301 140.249 90.3581C139.815 90.7918 139.3 91.0086 138.703 91.0086H135.847C135.34 91.0086 134.864 90.8594 134.419 90.5609C133.974 90.268 133.752 89.9723 133.752 89.6738C133.752 89.4823 133.82 89.3134 133.955 89.1669C134.096 89.0205 134.265 88.9473 134.462 88.9473C134.619 88.9473 134.833 89.0486 135.104 89.2514C135.374 89.4542 135.622 89.5555 135.847 89.5555H138.703C138.9 89.5555 139.072 89.4823 139.218 89.3359C139.37 89.1894 139.446 89.0148 139.446 88.8121C139.446 88.66 139.404 88.522 139.319 88.3981C139.235 88.2686 139.119 88.1756 138.973 88.1193L135.07 86.4212C134.709 86.2691 134.425 86.0382 134.217 85.7284C134.008 85.4187 133.904 85.0807 133.904 84.7147C133.904 84.1965 134.087 83.7544 134.453 83.3883C134.819 83.0222 135.261 82.8391 135.78 82.8391Z" fill="#0E1B4F"/>
<path d="M14.4004 49.7597C16.7694 49.7597 18.8525 50.2634 20.6496 51.2709C22.4467 52.2784 23.8491 53.7352 24.8566 55.6412C25.864 57.5473 26.3678 59.8618 26.3678 62.5847C26.3678 65.3077 25.864 67.6358 24.8566 69.5691C23.8491 71.4752 22.4467 72.9319 20.6496 73.9394C18.8797 74.9469 16.8102 75.4507 14.4413 75.4507C12.0995 75.4507 10.0301 74.9469 8.23296 73.9394C6.46305 72.9319 5.07434 71.4752 4.06685 69.5691C3.05936 67.6358 2.55562 65.3077 2.55562 62.5847C2.55562 59.8618 3.04575 57.5473 4.02601 55.6412C5.0335 53.7352 6.4222 52.2784 8.19212 51.2709C9.98926 50.2634 12.0587 49.7597 14.4004 49.7597ZM14.4413 53.7624C12.154 53.7624 10.4113 54.5112 9.21322 56.0088C8.04235 57.5065 7.45692 59.6984 7.45692 62.5847C7.45692 65.4711 8.04235 67.6767 9.21322 69.2015C10.4113 70.6991 12.154 71.4479 14.4413 71.4479C16.7286 71.4479 18.4712 70.6991 19.6693 69.2015C20.8674 67.6767 21.4665 65.4711 21.4665 62.5847C21.4665 59.6984 20.8674 57.5065 19.6693 56.0088C18.4985 54.5112 16.7558 53.7624 14.4413 53.7624ZM45.7267 75.4507C43.7117 75.4507 41.969 75.2873 40.4986 74.9605C39.0554 74.661 37.8029 74.307 36.7409 73.8986L36.0057 68.3029L39.8451 67.8537L40.2944 70.8353C41.084 71.1076 41.9009 71.3118 42.745 71.4479C43.5891 71.5841 44.4741 71.6522 45.3999 71.6522C46.4346 71.6522 47.3877 71.5296 48.259 71.2846C49.1303 71.0123 49.8247 70.6174 50.3421 70.1001C50.8594 69.5555 51.1181 68.8748 51.1181 68.0579C51.1181 67.2138 50.8458 66.4786 50.3012 65.8523C49.7839 65.226 48.6811 64.7767 46.9928 64.5044L44.052 64.0143C41.6014 63.5786 39.7226 62.7617 38.4155 61.5636C37.1085 60.3655 36.455 58.7999 36.455 56.8666C36.455 55.3145 36.8771 54.0075 37.7212 52.9455C38.5653 51.8836 39.7089 51.0939 41.1521 50.5766C42.5953 50.032 44.2154 49.7597 46.0126 49.7597C46.9111 49.7597 47.7961 49.8141 48.6674 49.923C49.5388 50.032 50.3829 50.1953 51.1998 50.4132C52.0167 50.631 52.8336 50.9169 53.6504 51.2709L54.4265 57.275L50.3012 57.7243L49.7702 54.0483C49.2256 53.8577 48.613 53.7079 47.9322 53.599C47.2787 53.4901 46.5844 53.4356 45.8492 53.4356C44.2427 53.4356 42.9765 53.7216 42.0507 54.2934C41.1521 54.838 40.7028 55.5868 40.7028 56.5398C40.7028 57.4928 41.0296 58.2416 41.6831 58.7862C42.3638 59.3036 43.4666 59.6984 44.9915 59.9707L48.0548 60.4609C50.696 60.8693 52.5749 61.6726 53.6913 62.8707C54.8077 64.0415 55.3659 65.5664 55.3659 67.4452C55.3659 69.0245 55.0664 70.3315 54.4673 71.3663C53.8955 72.401 53.1331 73.2179 52.18 73.8169C51.227 74.416 50.1787 74.838 49.035 75.0831C47.8914 75.3281 46.7886 75.4507 45.7267 75.4507ZM64.866 50.5766L75.4038 50.6174V54.7018H73.0757L73.0348 60.42H83.3276L83.3684 54.7018H80.9995V50.5766H91.5373V54.7018H88.1063L88.0655 70.5085H91.5373V74.6338H81.0403V70.5085H83.3276V64.5044H73.0348V70.5085H75.3221V74.6338H64.8252V70.5085H68.2969L68.3378 54.7018H64.866V50.5766ZM101.107 50.5766H119.651L122.06 57.806L118.18 59.113L116.628 54.7018H109.317V60.3383H116.26V64.4227H109.317V70.5085H117.649L119.16 66.4241L123 67.772L120.631 74.6338H101.066V70.5085H104.538L104.579 54.7018H101.107V50.5766ZM132.082 74.6338V70.5085H135.513V54.7018H132.082V50.5766H142.906C145.384 50.5766 147.317 50.9033 148.706 51.5568C150.095 52.1831 151.061 53.0953 151.606 54.2934C152.151 55.4642 152.423 56.8529 152.423 58.4595C152.423 61.1007 151.715 63.0885 150.299 64.4227C148.91 65.7298 146.746 66.3833 143.805 66.3833H140.251V70.5085H142.375V74.6338H132.082ZM140.292 62.2988H142.702C143.873 62.2988 144.799 62.1899 145.479 61.9721C146.187 61.7543 146.705 61.373 147.031 60.8284C147.358 60.2566 147.522 59.4806 147.522 58.5003C147.522 57.4656 147.331 56.676 146.95 56.1314C146.569 55.5868 146.024 55.2192 145.316 55.0286C144.608 54.8107 143.737 54.7018 142.702 54.7018H140.292V62.2988ZM147.889 74.6338L143.151 65.8931L147.562 65.1579L150.789 70.5085H154.874V74.6338H147.889Z" fill="#0E1B4F"/>
</svg>
