<svg width="483" height="118" viewBox="0 0 483 118" fill="none" xmlns="http://www.w3.org/2000/svg">
<path d="M120.942 35.1661H128.869L149.088 85.4821L169.265 35.1661H177.235L152.14 96.8848H145.951L120.942 35.1661ZM118.356 35.1661H125.35L126.495 72.8077V96.8848H118.356V35.1661ZM172.784 35.1661H179.778V96.8848H171.639V72.8077L172.784 35.1661ZM241.666 64.0756V67.9754C241.666 72.6099 241.087 76.764 239.928 80.4378C238.77 84.1115 237.102 87.2342 234.926 89.8058C232.75 92.3774 230.136 94.3414 227.084 95.6979C224.061 97.0543 220.669 97.7325 216.911 97.7325C213.265 97.7325 209.917 97.0543 206.865 95.6979C203.841 94.3414 201.213 92.3774 198.98 89.8058C196.776 87.2342 195.066 84.1115 193.851 80.4378C192.636 76.764 192.028 72.6099 192.028 67.9754V64.0756C192.028 59.441 192.622 55.301 193.809 51.6555C195.024 47.9818 196.734 44.8591 198.938 42.2875C201.142 39.6877 203.756 37.7095 206.78 36.353C209.832 34.9966 213.181 34.3184 216.826 34.3184C220.585 34.3184 223.976 34.9966 226.999 36.353C230.052 37.7095 232.666 39.6877 234.841 42.2875C237.046 44.8591 238.727 47.9818 239.886 51.6555C241.073 55.301 241.666 59.441 241.666 64.0756ZM233.57 67.9754V63.9908C233.57 60.317 233.188 57.0672 232.425 54.2413C231.691 51.4153 230.603 49.0415 229.161 47.1199C227.72 45.1982 225.954 43.7429 223.863 42.7538C221.8 41.7647 219.454 41.2702 216.826 41.2702C214.283 41.2702 211.98 41.7647 209.917 42.7538C207.882 43.7429 206.13 45.1982 204.66 47.1199C203.219 49.0415 202.103 51.4153 201.312 54.2413C200.52 57.0672 200.125 60.317 200.125 63.9908V67.9754C200.125 71.6773 200.52 74.9554 201.312 77.8096C202.103 80.6356 203.233 83.0235 204.703 84.9734C206.201 86.8951 207.967 88.3504 210.001 89.3395C212.064 90.3286 214.368 90.8231 216.911 90.8231C219.567 90.8231 221.927 90.3286 223.99 89.3395C226.053 88.3504 227.791 86.8951 229.204 84.9734C230.645 83.0235 231.733 80.6356 232.468 77.8096C233.202 74.9554 233.57 71.6773 233.57 67.9754ZM275.917 68.0177H260.275L260.19 61.4474H274.391C276.736 61.4474 278.785 61.0518 280.537 60.2605C282.289 59.4693 283.646 58.3389 284.606 56.8694C285.595 55.3716 286.09 53.5913 286.09 51.5284C286.09 49.2676 285.652 47.4307 284.776 46.0178C283.928 44.5765 282.614 43.5309 280.834 42.881C279.082 42.2027 276.849 41.8636 274.136 41.8636H262.098V96.8848H253.917V35.1661H274.136C277.301 35.1661 280.127 35.4911 282.614 36.1411C285.101 36.7628 287.206 37.7519 288.93 39.1083C290.682 40.4365 292.01 42.1321 292.915 44.195C293.819 46.258 294.271 48.7307 294.271 51.6131C294.271 54.1565 293.621 56.4596 292.321 58.5226C291.021 60.5573 289.213 62.2246 286.895 63.5245C284.606 64.8244 281.922 65.6581 278.841 66.0255L275.917 68.0177ZM275.535 96.8848H257.053L261.674 90.2297H275.535C278.135 90.2297 280.339 89.7775 282.148 88.8732C283.985 87.9689 285.384 86.6972 286.344 85.0582C287.305 83.3909 287.786 81.4269 287.786 79.1661C287.786 76.8771 287.376 74.8989 286.556 73.2316C285.737 71.5643 284.451 70.2785 282.699 69.3742C280.947 68.4699 278.686 68.0177 275.917 68.0177H264.26L264.344 61.4474H280.283L282.021 63.8212C284.988 64.0756 287.503 64.9233 289.566 66.3646C291.629 67.7775 293.197 69.5861 294.271 71.7904C295.373 73.9946 295.924 76.4249 295.924 79.0813C295.924 82.9246 295.076 86.1744 293.381 88.8308C291.714 91.459 289.354 93.4654 286.302 94.8501C283.25 96.2065 279.661 96.8848 275.535 96.8848ZM316.78 35.1661V96.8848H308.599V35.1661H316.78ZM351.581 87.5168L369.766 35.1661H378.626L355.778 96.8848H349.462L351.581 87.5168ZM334.583 35.1661L352.599 87.5168L354.845 96.8848H348.529L325.724 35.1661H334.583ZM426.144 90.2297V96.8848H393.462V90.2297H426.144ZM395.115 35.1661V96.8848H386.934V35.1661H395.115ZM421.82 61.7018V68.3569H393.462V61.7018H421.82ZM425.72 35.1661V41.8636H393.462V35.1661H425.72ZM459.928 35.1661V96.8848H451.874V35.1661H459.928ZM479.766 35.1661V41.8636H432.078V35.1661H479.766Z" fill="white"/>
<path fill-rule="evenodd" clip-rule="evenodd" d="M44.0974 13.953C43.8645 9.20411 42.3804 4.73287 40.1685 2.81681C36.4244 -0.426869 29.7714 -0.6694 25.8665 1.07344C20.2071 3.59915 22.2446 8.8181 17.4861 11.5279C15.4698 12.6758 4.71063 11.7857 4.84374 14.9585C5.47113 29.8904 25.4055 22.3968 26.3254 27.7779C28.1227 38.2892 19.0202 41.1882 19.5604 65.7873C17.8297 71.9657 19.0566 78.452 21.6223 84.1739C24.1221 89.7483 28.393 92.477 33.7111 95.0407C38.4724 97.3358 54.0504 99.6515 58.439 97.3241C69.6877 91.359 69.7092 78.7028 65.7878 67.9945C64.9625 65.741 61.2423 58.5204 59.5952 56.7678C42.2723 36.6288 43.4541 34.5494 44.0438 23.7252C39.8907 26.3737 33.5031 24.6937 32.027 18.6443C31.3279 15.7786 30.69 12.8379 30.6345 9.86754C30.6004 8.04326 32.4192 7.76765 32.6415 9.83315C32.9343 12.5522 33.5135 15.4751 34.1594 18.122C35.4201 23.2906 41.462 24.1091 44.1722 20.6682C44.2249 18.7281 44.2233 16.5224 44.0974 13.953Z" fill="white"/>
<path fill-rule="evenodd" clip-rule="evenodd" d="M57.4636 60.8946C62.9867 56.7355 68.3964 54.958 70.1041 47.9458C71.0341 44.1268 71.1731 43.3414 70.0842 41.8967C69.284 40.8348 67.2484 39.3753 67.2778 36.3015C67.3057 33.3709 68.2769 32.5912 68.2478 30.8039C68.2328 29.8765 66.1678 27.0002 65.8136 21.7598C69.5404 26.1276 72.1888 27.745 73.1033 27.6191C73.6878 27.5387 73.5916 26.9953 76.2915 26.6444C79.2171 26.2644 79.0492 26.9536 79.7568 26.7292C80.677 26.4373 79.4622 23.4297 82.6889 19.8101C82.7511 24.891 83.6857 27.7114 84.4557 28.2704C86.4535 29.7201 87.0517 35.3061 86.7318 37.6188C85.8529 43.9699 82.2395 41.3116 78.7794 48.2739C73.8609 58.1696 71.863 75.4685 75.4936 85.8027C76.4798 88.6105 80.5163 98.3881 80.2753 98.4129C71.387 99.3248 53.4635 98.9675 44.7207 98.8713C0.428589 98.3842 32.1614 57.7192 3.60755 56.7003C-0.62289 56.5493 -1.79045 54.9001 3.71797 54.5394C35.2153 52.4773 7.08369 98.9354 46.939 94.1417C48.0198 94.0117 36.0439 77.0241 57.4636 60.8946Z" fill="white"/>
<path fill-rule="evenodd" clip-rule="evenodd" d="M33.2611 9.09893C33.571 10.728 38.4868 11.6112 40.2062 8.82643C40.6383 8.12629 42.4897 5.58869 41.7635 4.83529C43.997 8.82591 46.3582 14.3171 46.0649 17.1875C45.225 25.4042 35.9665 25.7576 33.8888 17.6833C33.2183 15.0775 33.2611 11.8612 33.2611 9.09893Z" fill="white"/>
</svg>
